<svg width="135" height="43" viewBox="0 0 135 43" fill="none" xmlns="http://www.w3.org/2000/svg">
<path fill-rule="evenodd" clip-rule="evenodd" d="M97.8036 14.756C99.2845 8.4491 100.515 6.84813 103.462 6.47031C106.057 6.14281 106.922 5.53378 107.908 4.04524C109.121 2.07685 110.46 1.69034 114.577 0.811848C118.694 -0.0666436 121.391 -0.534739 122.661 1.01391C123.986 2.72022 125.471 2.90308 128.521 2.02435C133.933 0.771846 134.56 1.78374 134.584 4.04524V28.498C134.427 38.7313 131.348 40.2146 122.863 38.6025L97.8036 33.3482C94.3119 32.6306 93.8431 31.4135 94.3681 28.498L97.8036 14.756ZM110.939 29.5085C113.769 29.7657 118.215 26.8814 119.831 21.6271C121.852 13.7456 117.723 10.7143 114.375 10.7143C111.027 10.7143 108.262 12.1289 105.483 18.1916C104.186 21.0208 104.27 28.9023 110.939 29.5085ZM102.654 8.89547H103.866H107.504L106.493 12.1289H101.643L102.654 8.89547ZM8.73146 9.75187C7.45302 10.4319 6.44659 11.2887 5.71217 12.3223V9.05824H0V42.4336H5.71217V28.4388C6.50099 29.4725 7.52102 30.3293 8.77226 31.0093C10.0507 31.6893 11.5195 32.0293 13.1788 32.0293C15.1101 32.0293 16.8509 31.5397 18.4014 30.5605C19.979 29.5813 21.2166 28.2076 22.1143 26.4396C23.0391 24.6443 23.5015 22.5907 23.5015 20.2786C23.5015 17.9665 23.0391 15.9401 22.1143 14.1992C21.2166 12.4311 19.979 11.0711 18.4014 10.1191C16.8509 9.16705 15.1101 8.69103 13.1788 8.69103C11.5195 8.69103 10.0371 9.04465 8.73146 9.75187ZM16.8101 16.7697C17.3813 17.7489 17.6669 18.9185 17.6669 20.2786C17.6669 21.6658 17.3813 22.8627 16.8101 23.8691C16.2661 24.8755 15.5317 25.6507 14.6068 26.1948C13.7092 26.7388 12.73 27.0108 11.6691 27.0108C10.6355 27.0108 9.65629 26.7524 8.73146 26.2356C7.83383 25.6915 7.09941 24.9163 6.5282 23.9099C5.98418 22.9035 5.71217 21.7202 5.71217 20.3602C5.71217 19.0001 5.98418 17.8169 6.5282 16.8105C7.09941 15.804 7.83383 15.0424 8.73146 14.5256C9.65629 13.9816 10.6355 13.7096 11.6691 13.7096C12.73 13.7096 13.7092 13.968 14.6068 14.4848C15.5317 15.0016 16.2661 15.7632 16.8101 16.7697ZM48.5018 22.0738C48.6106 21.421 48.665 20.6866 48.665 19.8706C48.665 17.6673 48.189 15.7224 47.237 14.036C46.3121 12.3223 44.9929 11.0031 43.2793 10.0783C41.5928 9.15345 39.6751 8.69103 37.5263 8.69103C35.2958 8.69103 33.3238 9.16705 31.6101 10.1191C29.8965 11.0711 28.5636 12.4311 27.6116 14.1992C26.6596 15.9673 26.1835 18.0209 26.1835 20.3602C26.1835 22.6723 26.6596 24.7123 27.6116 26.4804C28.5908 28.2484 29.9373 29.6221 31.6509 30.6013C33.3918 31.5533 35.3502 32.0293 37.5263 32.0293C40.2192 32.0293 42.4904 31.3357 44.3401 29.9485C46.1897 28.534 47.441 26.7388 48.0938 24.5627H41.9328C41.0352 26.3852 39.5255 27.2964 37.4039 27.2964C35.935 27.2964 34.6974 26.834 33.691 25.9091C32.6845 24.9843 32.1133 23.7059 31.9773 22.0738H48.5018ZM41.1576 14.7296C42.1912 15.6 42.7216 16.7697 42.7488 18.2385H32.0181C32.2357 16.7153 32.8205 15.532 33.7726 14.6888C34.7518 13.8184 35.9486 13.3832 37.3631 13.3832C38.8591 13.3832 40.124 13.832 41.1576 14.7296ZM59.485 24.6851V13.7504H64.5443V9.05824H59.485V3.46848H53.732V9.05824H51.0391V13.7504H53.732V24.6443C53.732 29.3229 56.1393 31.6621 60.9538 31.6621H64.5443V26.8476H61.8923C61.0218 26.8476 60.3962 26.6844 60.0154 26.358C59.6618 26.0044 59.485 25.4467 59.485 24.6851ZM85.9525 9.87427C84.6197 9.11265 83.0965 8.73183 81.3828 8.73183C79.8868 8.73183 78.5267 9.01744 77.3027 9.58866C76.0787 10.1327 75.0994 10.8943 74.365 11.8735V1.46922H68.6528V31.6621H74.365V19.1769C74.365 17.3817 74.8138 16.0081 75.7114 15.056C76.6363 14.0768 77.8875 13.5872 79.4652 13.5872C81.0156 13.5872 82.2396 14.0768 83.1373 15.056C84.0349 16.0081 84.4837 17.3817 84.4837 19.1769V31.6621H90.1959V18.4017C90.1959 16.3617 89.8151 14.6208 89.0534 13.1792C88.319 11.7103 87.2854 10.6087 85.9525 9.87427Z" fill="white"/>
</svg>
