<svg width="787" height="499" viewBox="0 0 787 499" fill="none" xmlns="http://www.w3.org/2000/svg">
<g filter="url(#filter0_d_14_458)">
<path fill-rule="evenodd" clip-rule="evenodd" d="M226.492 288.68C240.07 307.058 262.56 319.073 288.007 319.073C322.313 319.073 351.245 297.236 360.212 267.41C371.515 273.878 384.761 277.599 398.923 277.599C440.387 277.599 474 245.699 474 206.349C474 175.771 453.703 149.692 425.197 139.584C425.294 138.101 425.344 136.606 425.344 135.099C425.344 95.7489 391.73 63.8492 350.266 63.8492C341.006 63.8492 332.136 65.4404 323.946 68.3505C310.775 47.7992 286.954 34.073 259.755 34.073C223.466 34.073 193.19 58.5076 186.198 90.9864C185.606 90.9733 185.012 90.9667 184.416 90.9667C142.952 90.9667 109.339 122.866 109.339 162.217V162.217C109.252 162.217 109.165 162.217 109.077 162.217C67.6132 162.217 34 194.116 34 233.467C34 272.817 67.6132 304.717 109.077 304.717C130.106 304.717 149.115 296.512 162.744 283.292C173.866 289.475 186.814 293.019 200.635 293.019C209.721 293.019 218.431 291.487 226.492 288.68Z" fill="white"/>
<path fill-rule="evenodd" clip-rule="evenodd" d="M226.492 288.68C240.07 307.058 262.56 319.073 288.007 319.073C322.313 319.073 351.245 297.236 360.212 267.41C371.515 273.878 384.761 277.599 398.923 277.599C440.387 277.599 474 245.699 474 206.349C474 175.771 453.703 149.692 425.197 139.584C425.294 138.101 425.344 136.606 425.344 135.099C425.344 95.7489 391.73 63.8492 350.266 63.8492C341.006 63.8492 332.136 65.4404 323.946 68.3505C310.775 47.7992 286.954 34.073 259.755 34.073C223.466 34.073 193.19 58.5076 186.198 90.9864C185.606 90.9733 185.012 90.9667 184.416 90.9667C142.952 90.9667 109.339 122.866 109.339 162.217V162.217C109.252 162.217 109.165 162.217 109.077 162.217C67.6132 162.217 34 194.116 34 233.467C34 272.817 67.6132 304.717 109.077 304.717C130.106 304.717 149.115 296.512 162.744 283.292C173.866 289.475 186.814 293.019 200.635 293.019C209.721 293.019 218.431 291.487 226.492 288.68Z" fill="white"/>
<path fill-rule="evenodd" clip-rule="evenodd" d="M152.856 288.573C126.133 271.24 138.437 188.722 202.729 209.073C374.365 263.403 418.785 197.761 442.604 148.393C437.279 144.772 431.435 141.796 425.197 139.584C425.294 138.101 425.344 136.606 425.344 135.099C425.344 95.7489 391.73 63.8492 350.266 63.8492C341.006 63.8492 332.136 65.4404 323.946 68.3505C310.775 47.7992 286.954 34.073 259.755 34.073C223.466 34.073 193.19 58.5076 186.198 90.9864C185.606 90.9733 185.012 90.9667 184.416 90.9667C142.952 90.9667 109.339 122.866 109.339 162.217V162.217C109.252 162.217 109.165 162.217 109.077 162.217C67.6132 162.217 34 194.116 34 233.467C34 272.817 67.6132 304.717 109.077 304.717C122.392 304.717 134.896 301.428 145.739 295.659L152.856 288.573Z" fill="#F8FDFF"/>
<path fill-rule="evenodd" clip-rule="evenodd" d="M152.988 288.573C126.235 271.24 73.2261 159.222 137.589 179.573C322.673 238.095 359.989 157.418 382.93 107.82C388.334 96.1375 392.94 86.1791 398.492 80.1704C385.49 69.9755 368.808 63.8492 350.617 63.8492C341.346 63.8492 332.467 65.4404 324.268 68.3505C311.082 47.7992 287.235 34.073 260.005 34.073C223.676 34.073 193.366 58.5076 186.367 90.9864C185.774 90.9733 185.179 90.9667 184.583 90.9667C143.073 90.9667 109.422 122.866 109.422 162.217V162.217C109.335 162.217 109.248 162.217 109.161 162.217C67.6505 162.217 34 194.116 34 233.467C34 272.817 67.6505 304.717 109.161 304.717C122.49 304.717 135.008 301.428 145.863 295.659L152.988 288.573Z" fill="white"/>
</g>
<g filter="url(#filter1_d_14_458)">
<path fill-rule="evenodd" clip-rule="evenodd" d="M486.505 288.416C500.909 306.922 524.927 319.148 552.224 319.389C589.024 319.713 620.251 298.15 630.132 268.41C642.2 274.985 656.376 278.831 671.567 278.964C716.045 279.356 752.382 247.775 752.729 208.427C752.998 177.85 731.455 151.58 700.967 141.203C701.084 139.721 701.15 138.226 701.163 136.72C701.51 97.3709 665.734 65.1548 621.256 64.7631C611.322 64.6756 601.795 66.1829 592.983 69.0155C579.036 48.3406 553.604 34.3899 524.428 34.1329C485.501 33.7901 452.809 57.9377 445.024 90.3491C444.388 90.3304 443.751 90.3182 443.112 90.3126C398.634 89.9208 362.297 121.502 361.95 160.85L361.95 160.851C361.857 160.85 361.763 160.849 361.67 160.848C317.192 160.456 280.855 192.037 280.508 231.386C280.161 270.735 315.937 302.951 360.415 303.343C382.971 303.541 403.434 295.517 418.171 282.426C430.047 288.713 443.905 292.38 458.73 292.51C468.477 292.596 477.833 291.146 486.505 288.416Z" fill="white"/>
<path fill-rule="evenodd" clip-rule="evenodd" d="M486.505 288.416C500.909 306.922 524.927 319.148 552.224 319.389C589.024 319.713 620.251 298.15 630.132 268.41C642.2 274.985 656.376 278.831 671.567 278.964C716.045 279.356 752.382 247.775 752.729 208.427C752.998 177.85 731.455 151.58 700.967 141.203C701.084 139.721 701.15 138.226 701.163 136.72C701.51 97.3709 665.734 65.1548 621.256 64.7631C611.322 64.6756 601.795 66.1829 592.983 69.0155C579.036 48.3406 553.604 34.3899 524.428 34.1329C485.501 33.7901 452.809 57.9377 445.024 90.3491C444.388 90.3304 443.751 90.3182 443.112 90.3126C398.634 89.9208 362.297 121.502 361.95 160.85L361.95 160.851C361.857 160.85 361.763 160.849 361.67 160.848C317.192 160.456 280.855 192.037 280.508 231.386C280.161 270.735 315.937 302.951 360.415 303.343C382.971 303.541 403.434 295.517 418.171 282.426C430.047 288.713 443.905 292.38 458.73 292.51C468.477 292.596 477.833 291.146 486.505 288.416Z" fill="white"/>
<path fill-rule="evenodd" clip-rule="evenodd" d="M407.518 287.613C379.005 270.028 392.93 187.63 461.716 208.587C645.349 264.537 693.576 199.317 719.561 150.176C713.881 146.505 707.638 143.474 700.967 141.203C701.084 139.721 701.15 138.226 701.163 136.72C701.51 97.3709 665.734 65.1548 621.256 64.7631C611.322 64.6756 601.795 66.1829 592.983 69.0155C579.036 48.3406 553.604 34.3899 524.428 34.1329C485.501 33.7901 452.809 57.9377 445.024 90.3491C444.388 90.3304 443.751 90.3182 443.112 90.3126C398.634 89.9208 362.297 121.502 361.95 160.85L361.95 160.851C361.857 160.85 361.763 160.849 361.67 160.848C317.192 160.456 280.855 192.037 280.508 231.386C280.161 270.735 315.937 302.951 360.415 303.343C374.697 303.468 388.14 300.297 399.821 294.631L407.518 287.613Z" fill="#FDFDFD"/>
<path fill-rule="evenodd" clip-rule="evenodd" d="M407.659 287.614C379.114 270.029 323.239 157.515 392.101 178.473C590.122 238.741 630.861 158.42 655.907 109.041C661.806 97.4098 666.835 87.4952 672.843 81.5392C658.986 71.2219 641.146 64.9382 621.633 64.7664C611.688 64.6788 602.149 66.1861 593.328 69.0186C579.365 48.3435 553.905 34.3926 524.697 34.1353C485.727 33.7921 452.999 57.9393 445.205 90.3507C444.569 90.332 443.931 90.3198 443.291 90.3142C398.764 89.922 362.387 121.503 362.04 160.851L362.04 160.852C361.947 160.851 361.853 160.85 361.759 160.849C317.232 160.457 280.855 192.037 280.508 231.386C280.161 270.735 315.977 302.951 360.504 303.343C374.802 303.469 388.26 300.299 399.954 294.632L407.659 287.614Z" fill="#FBFBFB"/>
</g>
<g filter="url(#filter2_f_14_458)">
<path fill-rule="evenodd" clip-rule="evenodd" d="M552.224 319.389C524.927 319.148 500.909 306.922 486.505 288.416C477.833 291.146 468.477 292.596 458.73 292.51C443.905 292.38 430.047 288.713 418.171 282.426C412.842 287.16 406.764 291.231 400.11 294.491L399.954 294.632C388.26 300.299 374.802 303.469 360.504 303.343L360.459 303.343L360.415 303.343C315.981 302.951 280.233 270.799 280.507 231.504L280.507 231.471C317.004 271.28 342.906 281.903 386.336 251.425C445.187 286.688 466.937 286.228 487.332 252.315C535.222 287.6 561.431 301.784 600.748 262.314C650.645 258.435 671.218 265.468 680.325 278.625C677.447 278.875 674.525 278.991 671.567 278.964C656.376 278.831 642.2 274.985 630.132 268.41C620.251 298.15 589.024 319.713 552.224 319.389ZM625.112 64.8622C643.264 65.7036 659.814 71.8384 672.843 81.5392C672.782 81.5999 672.721 81.661 672.66 81.7225C690.258 94.9477 701.357 114.719 701.163 136.72C701.15 138.226 701.084 139.721 700.967 141.203C707.638 143.474 713.881 146.505 719.561 150.176C739.838 163.282 752.939 184.54 752.729 208.427C752.639 218.556 750.165 228.17 745.781 236.857C710.649 271.6 672.27 262.21 619.605 249.325C613.564 247.847 607.336 246.323 600.902 244.815C605.609 242.134 610.153 239.566 614.528 237.093L614.545 237.084L614.556 237.077C702.433 187.413 722.387 176.136 625.112 64.8622Z" fill="#FDFDFD"/>
</g>
<g filter="url(#filter3_d_14_458)">
<path fill-rule="evenodd" clip-rule="evenodd" d="M198.931 443.318C210.565 456.473 229.835 465.073 251.638 465.073C281.032 465.073 305.821 449.443 313.504 428.093C323.189 432.723 334.539 435.386 346.672 435.386C382.199 435.386 411 412.553 411 384.386C411 362.499 393.609 343.832 369.185 336.597C369.268 335.535 369.31 334.465 369.31 333.386C369.31 305.22 340.51 282.386 304.983 282.386C297.048 282.386 289.449 283.525 282.431 285.608C271.146 270.898 250.736 261.073 227.431 261.073C196.337 261.073 170.397 278.563 164.406 301.811C163.899 301.802 163.39 301.797 162.879 301.797C127.352 301.797 98.5518 324.63 98.5518 352.797V352.797L98.4919 352.797C98.4371 352.797 98.3824 352.797 98.3276 352.797C62.8004 352.797 34 375.63 34 403.797C34 431.963 62.8004 454.797 98.3276 454.797C116.345 454.797 132.632 448.924 144.31 439.462C153.84 443.887 164.934 446.424 176.776 446.424C184.561 446.424 192.024 445.327 198.931 443.318Z" fill="white"/>
<path fill-rule="evenodd" clip-rule="evenodd" d="M198.931 443.318C210.565 456.473 229.835 465.073 251.638 465.073C281.032 465.073 305.821 449.443 313.504 428.093C323.189 432.723 334.539 435.386 346.672 435.386C382.199 435.386 411 412.553 411 384.386C411 362.499 393.609 343.832 369.185 336.597C369.268 335.535 369.31 334.465 369.31 333.386C369.31 305.22 340.51 282.386 304.983 282.386C297.048 282.386 289.449 283.525 282.431 285.608C271.146 270.898 250.736 261.073 227.431 261.073C196.337 261.073 170.397 278.563 164.406 301.811C163.899 301.802 163.39 301.797 162.879 301.797C127.352 301.797 98.5518 324.63 98.5518 352.797V352.797L98.4919 352.797C98.4371 352.797 98.3824 352.797 98.3276 352.797C62.8004 352.797 34 375.63 34 403.797C34 431.963 62.8004 454.797 98.3276 454.797C116.345 454.797 132.632 448.924 144.31 439.462C153.84 443.887 164.934 446.424 176.776 446.424C184.561 446.424 192.024 445.327 198.931 443.318Z" fill="white"/>
<path fill-rule="evenodd" clip-rule="evenodd" d="M135.838 443.241C112.941 430.834 123.483 371.769 178.57 386.336C325.631 425.225 363.691 378.239 384.099 342.902C379.537 340.31 374.529 338.18 369.185 336.597C369.268 335.535 369.31 334.465 369.31 333.386C369.31 305.22 340.51 282.386 304.983 282.386C297.048 282.386 289.449 283.525 282.431 285.608C271.146 270.898 250.736 261.073 227.431 261.073C196.337 261.073 170.397 278.563 164.406 301.811C163.899 301.802 163.39 301.797 162.879 301.797C127.352 301.797 98.5518 324.63 98.5518 352.797V352.797L98.4919 352.797L98.3276 352.797C62.8004 352.797 34 375.63 34 403.797C34 431.963 62.8004 454.797 98.3276 454.797C109.736 454.797 120.45 452.443 129.74 448.313L135.838 443.241Z" fill="#FDFDFD"/>
<path fill-rule="evenodd" clip-rule="evenodd" d="M135.951 443.241C113.029 430.834 67.6096 350.653 122.757 365.22C281.34 407.11 313.313 349.362 332.969 313.861C337.599 305.498 341.546 298.37 346.303 294.069C335.163 286.772 320.87 282.386 305.283 282.386C297.34 282.386 289.732 283.525 282.707 285.608C271.409 270.898 250.976 261.073 227.646 261.073C196.518 261.073 170.548 278.563 164.551 301.811C164.043 301.802 163.533 301.797 163.022 301.797C127.456 301.797 98.6233 324.63 98.6233 352.797V352.797C98.5485 352.797 98.4738 352.797 98.3989 352.797C62.8324 352.797 34 375.63 34 403.797C34 431.963 62.8324 454.797 98.3989 454.797C109.82 454.797 120.546 452.443 129.846 448.313L135.951 443.241Z" fill="#FBFBFB"/>
</g>
<g filter="url(#filter4_f_14_458)">
<path fill-rule="evenodd" clip-rule="evenodd" d="M251.638 465.073C229.835 465.073 210.565 456.473 198.931 443.318C192.024 445.327 184.561 446.424 176.776 446.424C164.934 446.424 153.84 443.887 144.31 439.462C140.087 442.883 135.262 445.836 129.97 448.211L129.846 448.313C120.546 452.443 109.82 454.797 98.399 454.797L98.3633 454.797L98.3276 454.797C62.8401 454.797 34.0643 432.014 34.0002 403.891L34.0001 403.858C63.4299 432.121 84.1923 439.562 118.665 417.473C165.918 442.342 183.286 441.875 199.337 417.473C237.835 442.427 258.868 452.414 289.993 423.915C292.329 423.734 294.585 423.58 296.763 423.453L251.638 465.073ZM308.063 282.433C353.407 328.099 367.257 350.115 357.396 367.53L384.099 342.902C379.537 340.31 374.529 338.18 369.185 336.597C369.268 335.535 369.31 334.465 369.31 333.386C369.31 317.638 360.307 303.557 346.158 294.201C346.206 294.157 346.255 294.113 346.303 294.069C335.829 287.208 322.567 282.921 308.063 282.433ZM338.182 385.252L306.19 414.758C305.782 414.672 305.373 414.586 304.962 414.499C300.127 413.48 295.142 412.428 289.993 411.389C293.738 409.438 297.354 407.569 300.836 405.769L300.842 405.766L300.844 405.765C315.952 397.954 328.535 391.45 338.182 385.252Z" fill="#FDFDFD"/>
</g>
<defs>
<filter id="filter0_d_14_458" x="0.200001" y="0.273045" width="507.6" height="352.6" filterUnits="userSpaceOnUse" color-interpolation-filters="sRGB">
<feFlood flood-opacity="0" result="BackgroundImageFix"/>
<feColorMatrix in="SourceAlpha" type="matrix" values="0 0 0 0 0 0 0 0 0 0 0 0 0 0 0 0 0 0 127 0" result="hardAlpha"/>
<feOffset/>
<feGaussianBlur stdDeviation="16.9"/>
<feComposite in2="hardAlpha" operator="out"/>
<feColorMatrix type="matrix" values="0 0 0 0 0.8375 0 0 0 0 0.8375 0 0 0 0 0.8375 0 0 0 0.25 0"/>
<feBlend mode="normal" in2="BackgroundImageFix" result="effect1_dropShadow_14_458"/>
<feBlend mode="normal" in="SourceGraphic" in2="effect1_dropShadow_14_458" result="shape"/>
</filter>
<filter id="filter1_d_14_458" x="246.705" y="0.329334" width="539.826" height="352.863" filterUnits="userSpaceOnUse" color-interpolation-filters="sRGB">
<feFlood flood-opacity="0" result="BackgroundImageFix"/>
<feColorMatrix in="SourceAlpha" type="matrix" values="0 0 0 0 0 0 0 0 0 0 0 0 0 0 0 0 0 0 127 0" result="hardAlpha"/>
<feOffset/>
<feGaussianBlur stdDeviation="16.9"/>
<feComposite in2="hardAlpha" operator="out"/>
<feColorMatrix type="matrix" values="0 0 0 0 0.680833 0 0 0 0 0.680833 0 0 0 0 0.680833 0 0 0 0.25 0"/>
<feBlend mode="normal" in2="BackgroundImageFix" result="effect1_dropShadow_14_458"/>
<feBlend mode="normal" in="SourceGraphic" in2="effect1_dropShadow_14_458" result="shape"/>
</filter>
<filter id="filter2_f_14_458" x="276.506" y="60.8622" width="480.225" height="262.53" filterUnits="userSpaceOnUse" color-interpolation-filters="sRGB">
<feFlood flood-opacity="0" result="BackgroundImageFix"/>
<feBlend mode="normal" in="SourceGraphic" in2="BackgroundImageFix" result="shape"/>
<feGaussianBlur stdDeviation="2" result="effect1_foregroundBlur_14_458"/>
</filter>
<filter id="filter3_d_14_458" x="0.200001" y="227.273" width="444.6" height="271.6" filterUnits="userSpaceOnUse" color-interpolation-filters="sRGB">
<feFlood flood-opacity="0" result="BackgroundImageFix"/>
<feColorMatrix in="SourceAlpha" type="matrix" values="0 0 0 0 0 0 0 0 0 0 0 0 0 0 0 0 0 0 127 0" result="hardAlpha"/>
<feOffset/>
<feGaussianBlur stdDeviation="16.9"/>
<feComposite in2="hardAlpha" operator="out"/>
<feColorMatrix type="matrix" values="0 0 0 0 0.680833 0 0 0 0 0.680833 0 0 0 0 0.680833 0 0 0 0.25 0"/>
<feBlend mode="normal" in2="BackgroundImageFix" result="effect1_dropShadow_14_458"/>
<feBlend mode="normal" in="SourceGraphic" in2="effect1_dropShadow_14_458" result="shape"/>
</filter>
<filter id="filter4_f_14_458" x="30.0001" y="278.433" width="358.099" height="190.64" filterUnits="userSpaceOnUse" color-interpolation-filters="sRGB">
<feFlood flood-opacity="0" result="BackgroundImageFix"/>
<feBlend mode="normal" in="SourceGraphic" in2="BackgroundImageFix" result="shape"/>
<feGaussianBlur stdDeviation="2" result="effect1_foregroundBlur_14_458"/>
</filter>
</defs>
</svg>
