<svg width="721" height="458" viewBox="0 0 721 458" fill="none" xmlns="http://www.w3.org/2000/svg">
<g filter="url(#filter0_d_14_459)">
<path fill-rule="evenodd" clip-rule="evenodd" d="M240.492 288.607C255.057 306.985 279.183 319 306.48 319C343.282 319 374.318 297.163 383.936 267.337C396.062 273.805 410.271 277.526 425.463 277.526C469.942 277.526 506 245.626 506 206.276C506 175.698 484.227 149.619 453.648 139.511C453.752 138.028 453.805 136.533 453.805 135.026C453.805 95.6758 417.747 63.7761 373.268 63.7761C363.333 63.7761 353.819 65.3674 345.033 68.2774C330.904 47.7261 305.351 34 276.174 34C237.245 34 204.767 58.4346 197.267 90.9133C196.632 90.9002 195.995 90.8937 195.356 90.8937C150.876 90.8937 114.818 122.793 114.818 162.144V162.144C114.725 162.144 114.631 162.144 114.537 162.144C70.0578 162.144 34 194.043 34 233.394C34 272.744 70.0578 304.644 114.537 304.644C137.095 304.644 157.487 296.439 172.107 283.219C184.038 289.402 197.928 292.946 212.754 292.946C222.501 292.946 231.844 291.414 240.492 288.607Z" fill="white"/>
<path fill-rule="evenodd" clip-rule="evenodd" d="M240.492 288.607C255.057 306.985 279.183 319 306.48 319C343.282 319 374.318 297.163 383.936 267.337C396.062 273.805 410.271 277.526 425.463 277.526C469.942 277.526 506 245.626 506 206.276C506 175.698 484.227 149.619 453.648 139.511C453.752 138.028 453.805 136.533 453.805 135.026C453.805 95.6758 417.747 63.7761 373.268 63.7761C363.333 63.7761 353.819 65.3674 345.033 68.2774C330.904 47.7261 305.351 34 276.174 34C237.245 34 204.767 58.4346 197.267 90.9133C196.632 90.9002 195.995 90.8937 195.356 90.8937C150.876 90.8937 114.818 122.793 114.818 162.144V162.144C114.725 162.144 114.631 162.144 114.537 162.144C70.0578 162.144 34 194.043 34 233.394C34 272.744 70.0578 304.644 114.537 304.644C137.095 304.644 157.487 296.439 172.107 283.219C184.038 289.402 197.928 292.946 212.754 292.946C222.501 292.946 231.844 291.414 240.492 288.607Z" fill="white"/>
<path fill-rule="evenodd" clip-rule="evenodd" d="M161.5 288.5C132.833 271.167 146.032 188.649 215 209C399.119 263.33 446.77 197.688 472.32 148.32C466.608 144.699 460.339 141.723 453.648 139.511C453.752 138.028 453.805 136.533 453.805 135.026C453.805 95.6758 417.747 63.7761 373.268 63.7761C363.333 63.7761 353.819 65.3674 345.033 68.2774C330.904 47.7261 305.351 34 276.174 34C237.245 34 204.767 58.4346 197.267 90.9133C196.632 90.9002 195.995 90.8937 195.356 90.8937C150.876 90.8937 114.818 122.793 114.818 162.144V162.144C114.725 162.144 114.631 162.144 114.537 162.144C70.0578 162.144 34 194.043 34 233.394C34 272.744 70.0578 304.644 114.537 304.644C128.82 304.644 142.234 301.355 153.865 295.586L161.5 288.5Z" fill="#FDFDFD"/>
<path fill-rule="evenodd" clip-rule="evenodd" d="M161.641 288.5C132.943 271.167 76.0788 159.149 145.123 179.5C343.667 238.022 383.697 157.345 408.306 107.747C414.103 96.0644 419.044 86.106 425 80.0973C411.053 69.9024 393.158 63.7761 373.644 63.7761C363.699 63.7761 354.174 65.3674 345.378 68.2775C331.233 47.7261 305.652 34 276.442 34C237.47 34 204.956 58.4346 197.448 90.9133C196.812 90.9002 196.174 90.8937 195.535 90.8937C151.006 90.8937 114.908 122.793 114.908 162.144V162.144C114.814 162.144 114.72 162.144 114.627 162.144C70.0978 162.144 34 194.043 34 233.394C34 272.744 70.0978 304.644 114.627 304.644C128.925 304.644 142.354 301.355 153.998 295.586L161.641 288.5Z" fill="#FBFBFB"/>
</g>
<g filter="url(#filter1_d_14_459)">
<path fill-rule="evenodd" clip-rule="evenodd" d="M482.806 401.712C494.008 415.189 512.562 424 533.556 424C561.858 424 585.727 407.986 593.125 386.114C602.45 390.857 613.378 393.586 625.061 393.586C659.269 393.586 687 370.193 687 341.336C687 318.912 670.255 299.787 646.738 292.375C646.818 291.287 646.858 290.191 646.858 289.086C646.858 260.229 619.128 236.836 584.92 236.836C577.28 236.836 569.963 238.003 563.205 240.137C552.339 225.066 532.687 215 510.248 215C480.309 215 455.331 232.919 449.563 256.736C449.075 256.727 448.585 256.722 448.093 256.722C413.886 256.722 386.155 280.115 386.155 308.972V308.972C386.083 308.972 386.011 308.972 385.939 308.972C351.731 308.972 324 332.365 324 361.222C324 390.079 351.731 413.472 385.939 413.472C403.287 413.472 418.97 407.455 430.214 397.761C439.39 402.295 450.072 404.894 461.474 404.894C468.97 404.894 476.156 403.77 482.806 401.712Z" fill="white"/>
<path fill-rule="evenodd" clip-rule="evenodd" d="M482.806 401.712C494.008 415.189 512.562 424 533.556 424C561.858 424 585.727 407.986 593.125 386.114C602.45 390.857 613.378 393.586 625.061 393.586C659.269 393.586 687 370.193 687 341.336C687 318.912 670.255 299.787 646.738 292.375C646.818 291.287 646.858 290.191 646.858 289.086C646.858 260.229 619.128 236.836 584.92 236.836C577.28 236.836 569.963 238.003 563.205 240.137C552.339 225.066 532.687 215 510.248 215C480.309 215 455.331 232.919 449.563 256.736C449.075 256.727 448.585 256.722 448.093 256.722C413.886 256.722 386.155 280.115 386.155 308.972V308.972C386.083 308.972 386.011 308.972 385.939 308.972C351.731 308.972 324 332.365 324 361.222C324 390.079 351.731 413.472 385.939 413.472C403.287 413.472 418.97 407.455 430.214 397.761C439.39 402.295 450.072 404.894 461.474 404.894C468.97 404.894 476.156 403.77 482.806 401.712Z" fill="white"/>
<path fill-rule="evenodd" clip-rule="evenodd" d="M422.056 401.633C400.01 388.922 410.16 328.409 463.201 343.333C604.802 383.176 641.448 335.038 661.098 298.835C656.705 296.179 651.884 293.997 646.738 292.375C646.818 291.287 646.858 290.191 646.858 289.086C646.858 260.229 619.128 236.836 584.92 236.836C577.28 236.836 569.963 238.003 563.205 240.137C552.339 225.066 532.687 215 510.248 215C480.309 215 455.331 232.919 449.563 256.736C449.075 256.727 448.585 256.722 448.093 256.722C413.886 256.722 386.155 280.115 386.155 308.972V308.972C386.083 308.972 386.011 308.972 385.939 308.972C351.731 308.972 324 332.365 324 361.222C324 390.079 351.731 413.472 385.939 413.472C396.923 413.472 407.24 411.06 416.185 406.829L422.056 401.633Z" fill="#FDFDFD"/>
<path fill-rule="evenodd" clip-rule="evenodd" d="M422.165 401.633C400.094 388.922 356.361 306.776 409.461 321.7C562.155 364.616 592.941 305.453 611.867 269.081C616.325 260.514 620.125 253.211 624.706 248.805C613.979 241.328 600.217 236.836 585.209 236.836C577.561 236.836 570.235 238.003 563.471 240.137C552.592 225.066 532.918 215 510.454 215C480.482 215 455.477 232.919 449.703 256.736C449.214 256.727 448.723 256.722 448.231 256.722C413.985 256.722 386.224 280.115 386.224 308.972V308.972C386.152 308.972 386.08 308.972 386.007 308.972C351.762 308.972 324 332.365 324 361.222C324 390.079 351.762 413.472 386.007 413.472C397.004 413.472 407.332 411.06 416.287 406.83L422.165 401.633Z" fill="#FBFBFB"/>
</g>
<defs>
<filter id="filter0_d_14_459" x="0.200001" y="0.200001" width="539.6" height="352.6" filterUnits="userSpaceOnUse" color-interpolation-filters="sRGB">
<feFlood flood-opacity="0" result="BackgroundImageFix"/>
<feColorMatrix in="SourceAlpha" type="matrix" values="0 0 0 0 0 0 0 0 0 0 0 0 0 0 0 0 0 0 127 0" result="hardAlpha"/>
<feOffset/>
<feGaussianBlur stdDeviation="16.9"/>
<feComposite in2="hardAlpha" operator="out"/>
<feColorMatrix type="matrix" values="0 0 0 0 0.8375 0 0 0 0 0.8375 0 0 0 0 0.8375 0 0 0 0.25 0"/>
<feBlend mode="normal" in2="BackgroundImageFix" result="effect1_dropShadow_14_459"/>
<feBlend mode="normal" in="SourceGraphic" in2="effect1_dropShadow_14_459" result="shape"/>
</filter>
<filter id="filter1_d_14_459" x="290.2" y="181.2" width="430.6" height="276.6" filterUnits="userSpaceOnUse" color-interpolation-filters="sRGB">
<feFlood flood-opacity="0" result="BackgroundImageFix"/>
<feColorMatrix in="SourceAlpha" type="matrix" values="0 0 0 0 0 0 0 0 0 0 0 0 0 0 0 0 0 0 127 0" result="hardAlpha"/>
<feOffset/>
<feGaussianBlur stdDeviation="16.9"/>
<feComposite in2="hardAlpha" operator="out"/>
<feColorMatrix type="matrix" values="0 0 0 0 0.490833 0 0 0 0 0.490833 0 0 0 0 0.490833 0 0 0 0.25 0"/>
<feBlend mode="normal" in2="BackgroundImageFix" result="effect1_dropShadow_14_459"/>
<feBlend mode="normal" in="SourceGraphic" in2="effect1_dropShadow_14_459" result="shape"/>
</filter>
</defs>
</svg>
